<svg width="38" height="43" viewBox="0 0 38 43" fill="none" xmlns="http://www.w3.org/2000/svg">
<rect x="18" y="21" width="20" height="20" rx="10" fill="#76D8D8"/>
<path d="M25.9731 30.459H26.9867V31.2191H25.9731V30.459ZM26.9867 31.7259H25.9731V32.486H26.9867V31.7259ZM25.9731 32.9928H26.9867V33.7529H25.9731V32.9928ZM28.5069 30.459H27.4934V31.2191H28.5069V30.459ZM27.4934 31.7259H28.5069V32.486H27.4934V31.7259ZM28.5069 32.9928H27.4934V33.7529H28.5069V32.9928ZM29.0137 30.459H30.0272V31.2191H29.0137V30.459ZM30.0272 31.7259H29.0137V32.486H30.0272V31.7259ZM29.0137 32.9928H30.0272V33.7529H29.0137V32.9928Z" fill="white"/>
<path fill-rule="evenodd" clip-rule="evenodd" d="M29.7735 26.912C29.7735 26.7776 29.7201 26.6487 29.6251 26.5537C29.53 26.4587 29.4011 26.4053 29.2667 26.4053H26.733C26.5986 26.4053 26.4697 26.4587 26.3746 26.5537C26.2796 26.6487 26.2262 26.7776 26.2262 26.912H24.4526V27.4188H24.9593V36.0337H24.1992C24.132 36.0337 24.0675 36.0603 24.02 36.1079C23.9725 36.1554 23.9458 36.2198 23.9458 36.287C23.9458 36.3542 23.9725 36.4187 24.02 36.4662C24.0675 36.5137 24.132 36.5404 24.1992 36.5404H31.8005C31.8677 36.5404 31.9322 36.5137 31.9797 36.4662C32.0272 36.4187 32.0539 36.3542 32.0539 36.287C32.0539 36.2198 32.0272 36.1554 31.9797 36.1079C31.9322 36.0603 31.8677 36.0337 31.8005 36.0337H31.0404V27.4188H31.5472V26.912H29.7735ZM29.2667 29.9526C29.4011 29.9526 29.53 29.8992 29.6251 29.8041C29.7201 29.7091 29.7735 29.5802 29.7735 29.4458V28.1789H30.5336V36.0337H29.7735V35.0201H30.0269V34.5134H25.9728V35.0201H26.2262V36.0337H25.4661V28.1789H26.2262V29.4458C26.2262 29.5802 26.2796 29.7091 26.3746 29.8041C26.4697 29.8992 26.5986 29.9526 26.733 29.9526H29.2667ZM27.7465 36.0337H28.2532V35.0201H27.7465V36.0337ZM30.5336 27.4188V27.6722H29.7735V27.4188H30.5336ZM25.4661 27.6722H26.2262V27.4188H25.4661V27.6722ZM26.9863 27.9255H27.7465V27.1654H28.2532V27.9255H29.0134V28.4323H28.2532V29.1924H27.7465V28.4323H26.9863V27.9255Z" fill="white"/>
<rect x="8" y="7" width="20" height="20" rx="10" fill="#76D8D8"/>
<path d="M21.4033 20.9818V14.2431H19.6465V12.4053H14.3762V20.9818H13.2051V21.5945H17.3042V19.7566H18.4753V21.5945H22.5744V20.9818H21.4033ZM16.7186 18.5314H15.5474V17.3062H16.7186V18.5314ZM16.7186 16.6936H15.5474V15.4683H16.7186V16.6936ZM16.7186 14.8557H15.5474V13.6305H16.7186V14.8557ZM18.4753 18.5314H17.3042V17.3062H18.4753V18.5314ZM18.4753 16.6936H17.3042V15.4683H18.4753V16.6936ZM18.4753 14.8557H17.3042V13.6305H18.4753V14.8557ZM20.8177 18.5314H19.6465V17.3062H20.8177V18.5314ZM20.8177 16.6936H19.6465V15.4683H20.8177V16.6936Z" fill="white"/>
<rect y="22" width="20" height="20" rx="10" fill="#76D8D8"/>
<path d="M10.2706 31.1891C11.6145 31.1891 12.7031 30.1006 12.7031 28.7567C12.7031 27.4127 11.6145 26.3242 10.2706 26.3242C8.92671 26.3242 7.83819 27.4127 7.83819 28.7567C7.83819 30.1006 8.92671 31.1891 10.2706 31.1891ZM10.2706 32.4053C8.64698 32.4053 5.40576 33.2202 5.40576 34.8377V36.0539H15.1355V34.8377C15.1355 33.2202 11.8943 32.4053 10.2706 32.4053Z" fill="white"/>
</svg>
