<svg width="38" height="43" viewBox="0 0 38 43" fill="none" xmlns="http://www.w3.org/2000/svg">
<rect x="18" y="21" width="20" height="20" rx="10" fill="#D5F1F1"/>
<path d="M25.9731 30.459H26.9867V31.2191H25.9731V30.459ZM26.9867 31.7259H25.9731V32.486H26.9867V31.7259ZM25.9731 32.9928H26.9867V33.7529H25.9731V32.9928ZM28.5069 30.459H27.4934V31.2191H28.5069V30.459ZM27.4934 31.7259H28.5069V32.486H27.4934V31.7259ZM28.5069 32.9928H27.4934V33.7529H28.5069V32.9928ZM29.0137 30.459H30.0272V31.2191H29.0137V30.459ZM30.0272 31.7259H29.0137V32.486H30.0272V31.7259ZM29.0137 32.9928H30.0272V33.7529H29.0137V32.9928Z" fill="white"/>
<path fill-rule="evenodd" clip-rule="evenodd" d="M29.7737 26.912C29.7737 26.7776 29.7204 26.6487 29.6253 26.5537C29.5303 26.4587 29.4014 26.4053 29.267 26.4053H26.7332C26.5988 26.4053 26.4699 26.4587 26.3749 26.5537C26.2798 26.6487 26.2265 26.7776 26.2265 26.912H24.4528V27.4188H24.9596V36.0337H24.1994C24.1322 36.0337 24.0678 36.0603 24.0203 36.1079C23.9727 36.1554 23.946 36.2198 23.946 36.287C23.946 36.3542 23.9727 36.4187 24.0203 36.4662C24.0678 36.5137 24.1322 36.5404 24.1994 36.5404H31.8008C31.868 36.5404 31.9324 36.5137 31.9799 36.4662C32.0275 36.4187 32.0542 36.3542 32.0542 36.287C32.0542 36.2198 32.0275 36.1554 31.9799 36.1079C31.9324 36.0603 31.868 36.0337 31.8008 36.0337H31.0406V27.4188H31.5474V26.912H29.7737ZM29.267 29.9526C29.4014 29.9526 29.5303 29.8992 29.6253 29.8041C29.7204 29.7091 29.7737 29.5802 29.7737 29.4458V28.1789H30.5339V36.0337H29.7737V35.0201H30.0271V34.5134H25.9731V35.0201H26.2265V36.0337H25.4663V28.1789H26.2265V29.4458C26.2265 29.5802 26.2798 29.7091 26.3749 29.8041C26.4699 29.8992 26.5988 29.9526 26.7332 29.9526H29.267ZM27.7467 36.0337H28.2535V35.0201H27.7467V36.0337ZM30.5339 27.4188V27.6722H29.7737V27.4188H30.5339ZM25.4663 27.6722H26.2265V27.4188H25.4663V27.6722ZM26.9866 27.9255H27.7467V27.1654H28.2535V27.9255H29.0136V28.4323H28.2535V29.1924H27.7467V28.4323H26.9866V27.9255Z" fill="white"/>
<rect x="8" y="7" width="20" height="20" rx="10" fill="#D5F1F1"/>
<path d="M21.4035 20.9818V14.2431H19.6468V12.4053H14.3765V20.9818H13.2053V21.5945H17.3044V19.7566H18.4756V21.5945H22.5747V20.9818H21.4035ZM16.7188 18.5314H15.5477V17.3062H16.7188V18.5314ZM16.7188 16.6936H15.5477V15.4683H16.7188V16.6936ZM16.7188 14.8557H15.5477V13.6305H16.7188V14.8557ZM18.4756 18.5314H17.3044V17.3062H18.4756V18.5314ZM18.4756 16.6936H17.3044V15.4683H18.4756V16.6936ZM18.4756 14.8557H17.3044V13.6305H18.4756V14.8557ZM20.8179 18.5314H19.6468V17.3062H20.8179V18.5314ZM20.8179 16.6936H19.6468V15.4683H20.8179V16.6936Z" fill="white"/>
<rect y="22" width="20" height="20" rx="10" fill="#D5F1F1"/>
<path d="M10.2704 31.1891C11.6143 31.1891 12.7028 30.1006 12.7028 28.7567C12.7028 27.4127 11.6143 26.3242 10.2704 26.3242C8.92646 26.3242 7.83795 27.4127 7.83795 28.7567C7.83795 30.1006 8.92646 31.1891 10.2704 31.1891ZM10.2704 32.4053C8.64673 32.4053 5.40552 33.2202 5.40552 34.8377V36.0539H15.1352V34.8377C15.1352 33.2202 11.894 32.4053 10.2704 32.4053Z" fill="white"/>
</svg>
