<svg width="24" height="24" viewBox="0 0 24 24" fill="none" xmlns="http://www.w3.org/2000/svg">
<path fill-rule="evenodd" clip-rule="evenodd" d="M6.0001 10.7999V8.3999C6.0001 5.08619 8.68639 2.3999 12.0001 2.3999C15.3138 2.3999 18.0001 5.08619 18.0001 8.3999V10.7999C19.3256 10.7999 20.4001 11.8744 20.4001 13.1999V19.1999C20.4001 20.5254 19.3256 21.5999 18.0001 21.5999H6.0001C4.67461 21.5999 3.6001 20.5254 3.6001 19.1999V13.1999C3.6001 11.8744 4.67461 10.7999 6.0001 10.7999ZM15.6001 8.3999V10.7999H8.4001V8.3999C8.4001 6.41168 10.0119 4.7999 12.0001 4.7999C13.9883 4.7999 15.6001 6.41168 15.6001 8.3999Z" fill="#637381"/>
</svg>
